<svg width="203" height="40" viewBox="0 0 203 40" fill="none" xmlns="http://www.w3.org/2000/svg">
<path fill-rule="evenodd" clip-rule="evenodd" d="M104.623 9.77881H93.4288C93.2151 9.77881 93.0547 9.97136 93.0547 10.1639V12.5303C93.0547 12.7505 93.2151 12.9157 93.4288 12.9157H97.3827V21.858C97.3827 22.0508 97.5431 22.216 97.7566 22.216H100.295C100.482 22.216 100.669 22.0508 100.669 21.858V12.9157H104.623C104.81 12.9157 104.97 12.7505 104.97 12.5303V10.1639C104.97 9.97136 104.81 9.77881 104.623 9.77881Z" fill="white"/>
<path fill-rule="evenodd" clip-rule="evenodd" d="M76.4903 9.77886H73.952C73.7383 9.77886 73.5781 9.97141 73.5781 10.164V10.6318C72.83 9.99898 71.7078 9.36597 70.1316 9.36597C66.7119 9.36597 64.1738 12.1177 64.1738 15.9972C64.1738 19.9045 66.7384 22.6561 70.0247 22.6561C71.7078 22.6561 72.83 22.0508 73.5781 21.4178V21.8581C73.5781 22.0508 73.7383 22.216 73.952 22.216H76.4903C76.6773 22.216 76.8642 22.0508 76.8642 21.8581V10.164C76.8642 9.97141 76.6773 9.77886 76.4903 9.77886ZM73.5781 18.2536C73.5781 18.2536 72.7765 19.5192 70.6925 19.5192C68.7423 19.5192 67.54 18.0884 67.54 15.9972C67.54 13.8787 68.7423 12.503 70.6925 12.503C72.6964 12.503 73.5781 13.7686 73.5781 13.7686V18.2536Z" fill="white"/>
<path fill-rule="evenodd" clip-rule="evenodd" d="M91.1045 9.77881H88.5663C88.3793 9.77881 88.1923 9.97136 88.1923 10.1639V14.4563H82.9025V10.1639C82.9025 9.97136 82.7154 9.77881 82.5284 9.77881H79.9903C79.7766 9.77881 79.6162 9.97136 79.6162 10.1639V21.858C79.6162 22.0508 79.7766 22.216 79.9903 22.216H82.5284C82.7154 22.216 82.9025 22.0508 82.9025 21.858V17.5658H88.1923V21.858C88.1923 22.0508 88.3793 22.216 88.5663 22.216H91.1045C91.3182 22.216 91.4784 22.0508 91.4784 21.858V10.1639C91.4784 9.97136 91.3182 9.77881 91.1045 9.77881Z" fill="white"/>
<path fill-rule="evenodd" clip-rule="evenodd" d="M58.3226 13.2456L63.8797 5.04617C64.0401 4.82604 63.9065 4.55078 63.666 4.55078H60.8073C60.46 4.55078 60.2462 4.66106 60.0593 4.96367L56.399 10.384L52.7923 4.96367C52.6053 4.66106 52.3916 4.55078 52.0442 4.55078H49.052C48.8115 4.55078 48.7046 4.82604 48.8382 5.04617L54.3953 13.3559L48.7314 21.7482C48.5977 21.9405 48.7046 22.216 48.9719 22.216H51.8037C52.1779 22.216 52.3916 22.0508 52.5518 21.8029L56.3187 16.2449L60.0593 21.8029C60.2462 22.0781 60.4334 22.216 60.8073 22.216H63.7728C64.0401 22.216 64.147 21.9405 64.0133 21.7482L58.3226 13.2456Z" fill="white"/>
<path fill-rule="evenodd" clip-rule="evenodd" d="M146.951 9.36597C143.157 9.36597 140.325 12.0902 140.325 15.9972C140.325 19.9045 143.157 22.6561 146.951 22.6561C150.745 22.6561 153.577 19.9045 153.577 15.9972C153.577 12.0902 150.745 9.36597 146.951 9.36597ZM146.951 19.5192C145.107 19.5192 143.718 18.1435 143.718 15.9972C143.718 13.8511 145.107 12.4753 146.951 12.4753C148.794 12.4753 150.184 13.8511 150.184 15.9972C150.184 18.1435 148.794 19.5192 146.951 19.5192Z" fill="white"/>
<path fill-rule="evenodd" clip-rule="evenodd" d="M167.63 9.77881H165.145C164.851 9.77881 164.691 9.94379 164.584 10.2191L161.084 18.5562L157.584 10.2191C157.477 9.94379 157.317 9.77881 156.996 9.77881H154.378C154.084 9.77881 153.951 9.97136 154.031 10.2464C159.294 22.491 159.321 22.5462 159.321 22.5462C158.786 23.3439 158.038 23.7017 157.13 23.7017C156.943 23.7017 156.622 23.6466 156.516 23.6466C156.195 23.619 155.981 23.8665 155.981 24.1969V26.1504C155.981 26.5357 156.195 26.7009 156.462 26.7559C156.729 26.8108 157.183 26.8659 157.451 26.8659C160.069 26.8659 161.725 25.1323 162.607 23.0138L167.977 10.2464C168.057 9.97136 167.924 9.77881 167.63 9.77881Z" fill="white"/>
<path fill-rule="evenodd" clip-rule="evenodd" d="M120.065 9.36595C118.943 9.36595 118.088 9.64143 117.42 9.99896V6.75226C117.42 6.55949 117.26 6.39429 117.046 6.39429H114.508C114.321 6.39429 114.134 6.55949 114.134 6.75226V9.99896C113.439 9.64143 112.584 9.36595 111.516 9.36595C108.229 9.36595 105.638 12.2 105.638 15.9972C105.638 19.657 108.069 22.656 111.516 22.656C112.611 22.656 113.439 22.4083 114.134 22.0508V26.4806C114.134 26.701 114.321 26.8659 114.508 26.8659H117.046C117.26 26.8659 117.42 26.701 117.42 26.4806V22.0232C118.088 22.3808 118.97 22.656 120.065 22.656C123.351 22.656 125.916 19.822 125.916 15.9972C125.916 12.3652 123.511 9.36595 120.065 9.36595ZM114.134 19.024C113.653 19.2991 113.012 19.5192 112.183 19.5192C110.26 19.5192 109.031 18.1159 109.031 15.9972C109.031 13.9612 110.26 12.503 112.183 12.503C113.038 12.503 113.68 12.7229 114.134 12.9706V19.024ZM119.397 19.5192C118.515 19.5192 117.874 19.2991 117.42 19.0516V13.0255C117.874 12.7505 118.542 12.503 119.397 12.503C121.294 12.503 122.549 13.906 122.549 15.9972C122.549 18.0608 121.321 19.5192 119.397 19.5192Z" fill="white"/>
<path fill-rule="evenodd" clip-rule="evenodd" d="M135.196 10.1639C135.089 9.88887 134.982 9.77881 134.661 9.77881H131.616C131.321 9.77881 131.215 9.88887 131.108 10.1639L126.406 21.7755C126.326 21.9956 126.459 22.216 126.753 22.216H129.158C129.478 22.216 129.638 22.0781 129.745 21.8029L133.058 13.5758L136.398 21.8029C136.531 22.1057 136.692 22.216 136.986 22.216H139.55C139.844 22.216 139.978 22.0232 139.898 21.7755L135.196 10.1639Z" fill="white"/>
<path d="M49.7383 38H51.9211V35.4213H52.745C54.6389 35.4213 55.7196 34.5546 55.7196 32.9496V32.9068C55.7196 31.2804 54.7459 30.3495 52.6487 30.3495H49.7383V38ZM51.9211 33.9233V31.9973H52.5631C53.2479 31.9973 53.6331 32.2648 53.6331 32.9175V32.9603C53.6331 33.5916 53.2586 33.9233 52.5524 33.9233H51.9211Z" fill="white"/>
<path d="M59.0774 38.1284C60.768 38.1284 61.7417 37.4115 61.9129 36.1489H60.1153C60.0404 36.5234 59.7729 36.8123 59.1416 36.8123C58.4568 36.8123 58.0288 36.3843 57.9753 35.646H61.9129V35.1431C61.9129 33.1315 60.5968 32.2541 59.0667 32.2541C57.3761 32.2541 56.0386 33.3883 56.0386 35.1859V35.2715C56.0386 37.1012 57.3226 38.1284 59.0774 38.1284ZM57.9967 34.5653C58.093 33.8912 58.4889 33.5167 59.0667 33.5167C59.6873 33.5167 60.019 33.8912 60.0511 34.5653H57.9967Z" fill="white"/>
<path d="M66.1571 38H68.2971L66.3176 34.9184L68.1473 32.4039H66.1571L64.6484 34.6188V32.4039H62.7331V38H64.6484V35.5497L66.1571 38Z" fill="white"/>
<path d="M71.8832 36.6625C71.1877 36.6625 70.7704 36.181 70.7704 35.2287V35.1431C70.7704 34.2015 71.1877 33.6986 71.8832 33.6986C72.5573 33.6986 72.9853 34.1694 72.9853 35.1538V35.2394C72.9853 36.1596 72.6001 36.6625 71.8832 36.6625ZM68.9086 39.8725H70.8239V37.1761C71.1021 37.7325 71.712 38.1284 72.5573 38.1284C73.8734 38.1284 74.9327 37.1654 74.9327 35.2394V35.1538C74.9327 33.2385 73.8734 32.2541 72.568 32.2541C71.7227 32.2541 71.1449 32.7035 70.8239 33.2385V32.4039H68.9086V39.8725Z" fill="white"/>
<path d="M76.3991 39.8725H78.2288L81.2248 32.4039H79.3951L78.3251 35.3892L77.1695 32.4039H75.0937L77.33 37.4329L76.3991 39.8725Z" fill="white"/>
<path d="M86.4664 32.4039H81.416V33.7093H82.9889V38H84.8935V33.7093H86.4664V32.4039Z" fill="white"/>
<path d="M89.0578 38L90.8126 34.5974V38H92.7172V32.4039H90.8126L89.0578 35.8065V32.4039H87.1532V38H89.0578Z" fill="white"/>
<path d="M97.4565 38H99.3611V32.4039H97.4565V34.5011H95.7766V32.4039H93.872V38H95.7766V35.8065H97.4565V38Z" fill="white"/>
<path d="M104.53 33.7093V32.4039H100.518V38H102.422V33.7093H104.53Z" fill="white"/>
<path d="M107.97 38.1284C109.692 38.1284 111.03 37.037 111.03 35.218V35.1324C111.03 33.3562 109.703 32.2541 107.98 32.2541C106.247 32.2541 104.91 33.3883 104.91 35.1859V35.2715C104.91 37.0798 106.247 38.1284 107.97 38.1284ZM107.98 36.7053C107.242 36.7053 106.868 36.181 106.868 35.218V35.1324C106.868 34.1908 107.264 33.6879 107.98 33.6879C108.708 33.6879 109.083 34.2122 109.083 35.1538V35.2394C109.083 36.1703 108.697 36.7053 107.98 36.7053Z" fill="white"/>
<path d="M111.876 38H114.829C116.349 38 117.033 37.3473 117.033 36.3415V36.3308C117.033 35.5925 116.541 35.1966 115.664 35.0575C116.445 34.8863 116.819 34.4904 116.819 33.7735V33.7628C116.819 32.864 116.06 32.4039 114.69 32.4039H111.876V38ZM113.781 34.576V33.5274H114.123C114.637 33.5274 114.904 33.6344 114.904 34.0303C114.904 34.4155 114.669 34.576 114.219 34.576H113.781ZM113.781 36.8872V35.6888H114.444C114.915 35.6888 115.118 35.9028 115.118 36.288C115.118 36.7267 114.84 36.8872 114.337 36.8872H113.781Z" fill="white"/>
<path d="M120.099 36.8337C119.65 36.8337 119.436 36.6304 119.436 36.3094C119.436 35.8493 119.778 35.6995 120.549 35.6995H121.052V36.0419C121.052 36.5234 120.645 36.8337 120.099 36.8337ZM119.436 38.1284C120.335 38.1284 120.827 37.7539 121.095 37.3473V38H122.956V34.3727C122.956 32.8854 121.972 32.2541 120.431 32.2541C118.901 32.2541 117.842 32.9175 117.756 34.2657H119.554C119.597 33.9126 119.789 33.6023 120.313 33.6023C120.923 33.6023 121.052 33.9554 121.052 34.4904V34.6188H120.517C118.655 34.6188 117.542 35.1324 117.542 36.4485C117.542 37.6362 118.43 38.1284 119.436 38.1284Z" fill="white"/>
<path d="M127.131 33.6879V34.9505H126.606C126.093 34.9505 125.825 34.79 125.825 34.3192V34.2871C125.825 33.9126 126.104 33.6879 126.606 33.6879H127.131ZM126.542 36.1703H127.131V38H129.035V32.4039H126.146C124.616 32.4039 123.899 33.185 123.899 34.2657V34.2978C123.899 35.0147 124.252 35.4855 124.83 35.7637L123.568 38H125.611L126.542 36.1703Z" fill="white"/>
<path d="M134.78 38.1284C136.588 38.1284 137.54 37.2082 137.594 35.7958H135.871C135.807 36.4057 135.432 36.7267 134.897 36.7267C134.17 36.7267 133.795 36.2238 133.795 35.2501V35.1645C133.795 34.2229 134.191 33.7414 134.865 33.7414C135.422 33.7414 135.679 34.0303 135.764 34.5546H137.562C137.455 32.8533 136.192 32.2541 134.823 32.2541C133.175 32.2541 131.837 33.3241 131.837 35.1859V35.2715C131.837 37.1547 133.111 38.1284 134.78 38.1284Z" fill="white"/>
<path d="M140.29 38L142.045 34.5974V38H143.95V32.4039H142.045L140.29 35.8065V32.4039H138.386V38H140.29Z" fill="white"/>
<path d="M147.737 38.1284C149.545 38.1284 150.497 37.2082 150.551 35.7958H148.828C148.764 36.4057 148.389 36.7267 147.854 36.7267C147.127 36.7267 146.752 36.2238 146.752 35.2501V35.1645C146.752 34.2229 147.148 33.7414 147.822 33.7414C148.379 33.7414 148.636 34.0303 148.721 34.5546H150.519C150.412 32.8533 149.149 32.2541 147.78 32.2541C146.132 32.2541 144.794 33.3241 144.794 35.1859V35.2715C144.794 37.1547 146.068 38.1284 147.737 38.1284Z" fill="white"/>
<path d="M155.975 32.4039H150.924V33.7093H152.497V38H154.402V33.7093H155.975V32.4039Z" fill="white"/>
<path d="M159.338 38.1284C161.028 38.1284 162.002 37.4115 162.173 36.1489H160.376C160.301 36.5234 160.033 36.8123 159.402 36.8123C158.717 36.8123 158.289 36.3843 158.236 35.646H162.173V35.1431C162.173 33.1315 160.857 32.2541 159.327 32.2541C157.636 32.2541 156.299 33.3883 156.299 35.1859V35.2715C156.299 37.1012 157.583 38.1284 159.338 38.1284ZM158.257 34.5653C158.353 33.8912 158.749 33.5167 159.327 33.5167C159.948 33.5167 160.279 33.8912 160.311 34.5653H158.257Z" fill="white"/>
<path d="M165.914 38H166.631L168.076 34.4048V38H169.959V32.4039H167.659L166.546 35.1966L165.454 32.4039H163.004V38H164.502V34.4048L165.914 38Z" fill="white"/>
<path d="M173.338 36.8337C172.889 36.8337 172.675 36.6304 172.675 36.3094C172.675 35.8493 173.017 35.6995 173.788 35.6995H174.291V36.0419C174.291 36.5234 173.884 36.8337 173.338 36.8337ZM172.675 38.1284C173.574 38.1284 174.066 37.7539 174.333 37.3473V38H176.195V34.3727C176.195 32.8854 175.211 32.2541 173.67 32.2541C172.14 32.2541 171.081 32.9175 170.995 34.2657H172.793C172.835 33.9126 173.028 33.6023 173.552 33.6023C174.162 33.6023 174.291 33.9554 174.291 34.4904V34.6188H173.756C171.894 34.6188 170.781 35.1324 170.781 36.4485C170.781 37.6362 171.669 38.1284 172.675 38.1284Z" fill="white"/>
<path d="M189.018 34.4583C190.259 34.4583 191.244 33.6879 191.244 32.3718V32.3183C191.244 31.0236 190.27 30.2639 189.029 30.2639C187.766 30.2639 186.792 31.0557 186.792 32.3611V32.4253C186.792 33.7307 187.766 34.4583 189.018 34.4583ZM189.029 33.292C188.579 33.292 188.365 32.9924 188.365 32.3611V32.3076C188.365 31.7084 188.601 31.4195 189.029 31.4195C189.457 31.4195 189.671 31.7298 189.671 32.329V32.3825C189.671 32.9924 189.457 33.292 189.029 33.292ZM179.57 38H181.496V33.3027L183.968 38H186.086V30.3495H184.171V34.5546L182.042 30.3495H179.57V38ZM186.953 36.1917H191.083V35.1645H186.953V36.1917Z" fill="white"/>
<path d="M193.314 38H195.508V30.3495H193.614L191.859 31.58V33.4097L193.314 32.5109V38Z" fill="white"/>
<path d="M199.807 32.6831L200.717 31.1231L201.679 32.6831L202.407 32.1501L201.328 30.7071L202.94 30.3301L202.654 29.4591L201.133 30.0831L201.224 28.3411H200.275L200.366 30.0831L198.832 29.4591L198.546 30.3301L200.145 30.7071L199.066 32.1501L199.807 32.6831Z" fill="#8F999C"/>
<path d="M38.839 19.5994C38.839 8.77493 30.1446 0 19.4195 0C8.6944 0 0 8.77493 0 19.5994V20.4006C0 31.2251 8.6944 40 19.4195 40C30.1446 40 38.839 31.2251 38.839 20.4006V19.5994Z" fill="#22BBD2"/>
<path fill-rule="evenodd" clip-rule="evenodd" d="M21.642 19.1865L28.7925 29.7128C29.0211 30.0487 28.7656 30.5042 28.3628 30.5042H24.8153C24.4392 30.5042 24.096 30.3302 23.8853 30.02L9.87478 9.39153C9.64651 9.0654 9.89009 8.6001 10.3043 8.6001H13.8517C14.2279 8.6001 14.569 8.77672 14.7924 9.10298L21.642 19.1865Z" fill="white"/>
<path fill-rule="evenodd" clip-rule="evenodd" d="M9.87384 29.8052C9.6435 30.1426 9.90084 30.6001 10.3066 30.6001H13.8789C14.2576 30.6001 14.6033 30.4253 14.8154 30.1137L28.9241 9.39499C29.154 9.06744 28.9087 8.6001 28.4916 8.6001H24.9194C24.5405 8.6001 24.197 8.77749 23.972 9.10518L17.0745 19.2328L9.87384 29.8052Z" fill="white"/>
</svg>
